<svg xmlns="http://www.w3.org/2000/svg" viewBox="0 0 409.14 181.72"><defs><style>.cls-1{fill:#f1f2f2;stroke:#231f20;stroke-miterlimit:10;stroke-width:1.42px;}.cls-2{font-size:79.37px;letter-spacing:0.18em;}.cls-2,.cls-3{font-family:hypy, hypy;}.cls-3{font-size:85.04px;letter-spacing:0.18em;}.cls-4{fill:#1a8e22;}</style></defs><title>3d view selectedAsset 3</title><g id="Layer_2" data-name="Layer 2"><g id="Layer_1-2" data-name="Layer 1"><rect class="cls-1" x="0.71" y="10.93" width="255.12" height="170.08" rx="8.5" ry="8.5"/><text class="cls-2" transform="translate(105.99 72.51)">g</text><rect class="cls-1" x="153.31" y="10.93" width="255.12" height="170.08" rx="8.5" ry="8.5"/><text class="cls-3" transform="translate(157.36 76.57)">uang</text><path class="cls-4" d="M71.31,125.8a8,8,0,0,1-1.9,5.56L38.15,169.71a7.2,7.2,0,0,1-11,.51c-4.39-4.62-8.67-9.34-13-14-1.43-1.54-2.87-3.06-4.26-4.63a7.3,7.3,0,0,1,.36-10,7.18,7.18,0,0,1,10.21.08c3.64,3.79,7.16,7.7,10.72,11.56.86.92.85.93,1.63,0,8.42-10.34,16.87-20.66,25.24-31a7.4,7.4,0,0,1,10.37-1.5A7,7,0,0,1,71.31,125.8Z"/><path class="cls-4" d="M398.31,125.8a8,8,0,0,1-1.9,5.56l-31.26,38.35a7.2,7.2,0,0,1-11,.51c-4.39-4.62-8.67-9.34-13-14-1.43-1.54-2.87-3.06-4.26-4.63a7.3,7.3,0,0,1,.36-10,7.18,7.18,0,0,1,10.21.08c3.64,3.79,7.16,7.7,10.72,11.56.86.92.85.93,1.63,0,8.42-10.34,16.87-20.66,25.24-31a7.4,7.4,0,0,1,10.37-1.5A7,7,0,0,1,398.31,125.8Z"/></g></g></svg>