<svg xmlns="http://www.w3.org/2000/svg" xmlns:xlink="http://www.w3.org/1999/xlink" viewBox="0 0 409.14 269.61"><defs><style>.cls-1{fill:none;}.cls-1,.cls-4{stroke:#231f20;stroke-miterlimit:10;stroke-width:1.42px;}.cls-2{clip-path:url(#clip-path);}.cls-3{fill:#fff;}.cls-4{fill:#f1f2f2;}.cls-5{font-size:79.37px;letter-spacing:0.18em;}.cls-5,.cls-6{font-family:hypy, hypy;}.cls-6{font-size:85.04px;letter-spacing:0.18em;}.cls-7{fill:#1a8e22;}</style><clipPath id="clip-path"><rect class="cls-1" x="113.94" y="98.67" width="255.12" height="85.04" rx="8.5" ry="8.5" transform="translate(100.31 382.69) rotate(-90)"/></clipPath></defs><title>3d view selectedAsset 5</title><g id="Layer_2" data-name="Layer 2"><g id="Layer_1-2" data-name="Layer 1"><g class="cls-2"><rect class="cls-3" x="198.98" y="13.63" width="85.04" height="88.67"/></g><rect class="cls-1" x="113.94" y="98.67" width="255.12" height="85.04" rx="8.5" ry="8.5" transform="translate(100.31 382.69) rotate(-90)"/><polygon points="259.61 76.65 241.33 94.92 223.4 76.65 231.04 76.65 241.33 86.95 251.63 76.65 259.61 76.65"/><rect class="cls-4" x="0.71" y="98.83" width="255.12" height="170.08" rx="8.5" ry="8.5"/><text class="cls-5" transform="translate(105.99 160.41)">g</text><rect class="cls-4" x="153.31" y="98.83" width="255.12" height="170.08" rx="8.5" ry="8.5"/><text class="cls-6" transform="translate(157.36 164.46)">uang</text><path class="cls-7" d="M71.31,213.7a8,8,0,0,1-1.9,5.56L38.15,257.61a7.2,7.2,0,0,1-11,.5c-4.39-4.61-8.67-9.33-13-14-1.43-1.54-2.87-3.07-4.26-4.63a7.31,7.31,0,0,1,.36-10.05,7.2,7.2,0,0,1,10.21.08c3.64,3.79,7.16,7.7,10.72,11.56.86.93.85.93,1.63,0,8.42-10.35,16.87-20.66,25.24-31a7.41,7.41,0,0,1,10.37-1.51A7,7,0,0,1,71.31,213.7Z"/><path class="cls-7" d="M398.31,213.7a8,8,0,0,1-1.9,5.56l-31.26,38.35a7.2,7.2,0,0,1-11,.5c-4.39-4.61-8.67-9.33-13-14-1.43-1.54-2.87-3.07-4.26-4.63a7.31,7.31,0,0,1,.36-10.05,7.2,7.2,0,0,1,10.21.08c3.64,3.79,7.16,7.7,10.72,11.56.86.93.85.93,1.63,0,8.42-10.35,16.87-20.66,25.24-31a7.41,7.41,0,0,1,10.37-1.51A7,7,0,0,1,398.31,213.7Z"/><path class="cls-7" d="M278.31,6.7a8,8,0,0,1-1.9,5.56L245.15,50.61a7.2,7.2,0,0,1-11,.5c-4.39-4.61-8.67-9.33-13-14-1.43-1.54-2.87-3.07-4.26-4.63a7.31,7.31,0,0,1,.36-10,7.2,7.2,0,0,1,10.21.08c3.64,3.79,7.16,7.7,10.72,11.56.86.93.85.93,1.63,0,8.42-10.35,16.87-20.66,25.24-31a7.41,7.41,0,0,1,10.37-1.51A7,7,0,0,1,278.31,6.7Z"/></g></g></svg>