<svg xmlns="http://www.w3.org/2000/svg" xmlns:xlink="http://www.w3.org/1999/xlink" viewBox="0 0 526.73 269.24"><defs><style>.cls-1,.cls-2{fill:#fff;}.cls-1,.cls-4,.cls-6{stroke:#231f20;stroke-miterlimit:10;stroke-width:1.42px;}.cls-3{clip-path:url(#clip-path);}.cls-4{fill:none;}.cls-5{fill:#ce2811;}.cls-6{fill:#f1f2f2;}.cls-7{font-size:79.37px;letter-spacing:0.18em;}.cls-7,.cls-8{font-family:hypy, hypy;}.cls-8{font-size:85.04px;letter-spacing:0.18em;}.cls-9{fill:#1a8e22;}</style><clipPath id="clip-path"><rect class="cls-1" x="355.94" y="98.3" width="255.12" height="85.04" rx="8.5" ry="8.5" transform="translate(342.68 624.32) rotate(-90)"/></clipPath></defs><title>3d view selectedAsset 6</title><g id="Layer_2" data-name="Layer 2"><g id="Layer_1-2" data-name="Layer 1"><rect class="cls-2" x="355.94" y="98.3" width="255.12" height="85.04" rx="8.5" ry="8.5" transform="translate(342.68 624.32) rotate(-90)"/><g class="cls-3"><rect class="cls-2" x="440.98" y="13.26" width="85.04" height="88.67"/></g><rect class="cls-4" x="355.94" y="98.3" width="255.12" height="85.04" rx="8.5" ry="8.5" transform="translate(342.68 624.32) rotate(-90)"/><path class="cls-5" d="M465,52.37a7.47,7.47,0,0,1-4.46-1.53,7.77,7.77,0,0,1-3.16-5.47,7.32,7.32,0,0,1,2-5.73c1.79-1.94,3.68-3.81,5.51-5.63l2.2-2.19,1.25-1.27c1.45-1.46,2.9-2.92,4.36-4.36l-5.71-5.7q-3.48-3.48-7-6.95A8.16,8.16,0,0,1,457.6,5.8,7.66,7.66,0,0,1,462.91.31,5.32,5.32,0,0,1,464.5.08h.58a8,8,0,0,1,5.85,2.68l3.63,3.63c3,3,6,6,8.95,9Q488.84,10,494.22,4.6l1.94-1.95A8.42,8.42,0,0,1,502.06,0a7.36,7.36,0,0,1,4,1.23,7.76,7.76,0,0,1,3.53,5.4,7.64,7.64,0,0,1-1.87,6.08c-1.15,1.34-2.4,2.56-3.61,3.74-.44.44-.89.87-1.32,1.31l-1.07,1.07c-2.46,2.46-4.91,4.92-7.38,7.36,4,4,8.19,8.19,12.78,12.83,2.87,2.9,3.35,6.67,1.25,9.84a7.66,7.66,0,0,1-6.39,3.5,7.57,7.57,0,0,1-4.61-1.58,28.94,28.94,0,0,1-3.4-3.2c-.41-.43-.83-.86-1.25-1.27-3.34-3.3-6.37-6.34-9.25-9.25-3,3-5.92,5.94-8.87,8.88l-3.76,3.77A8.37,8.37,0,0,1,465,52.37Z"/><polygon points="499.69 75.85 471.37 94.83 468.21 89.05 497.03 69.21 499.69 75.85"/><rect class="cls-6" x="0.71" y="98.46" width="255.12" height="170.08" rx="8.5" ry="8.5"/><text class="cls-7" transform="translate(105.99 160.04)">g</text><rect class="cls-6" x="153.31" y="98.46" width="255.12" height="170.08" rx="8.5" ry="8.5"/><text class="cls-8" transform="translate(157.36 164.09)">uang</text><path class="cls-9" d="M71.31,213.33a8,8,0,0,1-1.9,5.56L38.15,257.24a7.2,7.2,0,0,1-11,.5c-4.39-4.61-8.67-9.33-13-14-1.43-1.54-2.87-3.07-4.26-4.63a7.31,7.31,0,0,1,.36-10,7.2,7.2,0,0,1,10.21.08c3.64,3.79,7.16,7.7,10.72,11.56.86.93.85.93,1.63,0,8.42-10.35,16.87-20.66,25.24-31a7.41,7.41,0,0,1,10.37-1.51A7,7,0,0,1,71.31,213.33Z"/><path class="cls-9" d="M398.31,213.33a8,8,0,0,1-1.9,5.56l-31.26,38.35a7.2,7.2,0,0,1-11,.5c-4.39-4.61-8.67-9.33-13-14-1.43-1.54-2.87-3.07-4.26-4.63a7.31,7.31,0,0,1,.36-10,7.2,7.2,0,0,1,10.21.08c3.64,3.79,7.16,7.7,10.72,11.56.86.93.85.93,1.63,0,8.42-10.35,16.87-20.66,25.24-31a7.41,7.41,0,0,1,10.37-1.51A7,7,0,0,1,398.31,213.33Z"/></g></g></svg>