<svg xmlns="http://www.w3.org/2000/svg" viewBox="0 0 410.66 181.72"><defs><style>.cls-1{fill:#f1f2f2;stroke:#231f20;stroke-miterlimit:10;stroke-width:1.42px;}.cls-2{font-size:79.37px;letter-spacing:0.18em;}.cls-2,.cls-3{font-family:hypy, hypy;}.cls-3{font-size:85.04px;letter-spacing:0.18em;}.cls-4{fill:#ce2811;}</style></defs><title>3d view selectedAsset 1</title><g id="Layer_2" data-name="Layer 2"><g id="Layer_1-2" data-name="Layer 1"><rect class="cls-1" x="154.83" y="10.93" width="255.12" height="170.08" rx="8.5" ry="8.5"/><text class="cls-2" transform="translate(260.11 72.51)">g</text><rect class="cls-1" x="0.71" y="10.93" width="255.12" height="170.08" rx="8.5" ry="8.5"/><text class="cls-3" transform="translate(4.75 76.57)">uang</text><path class="cls-4" d="M201.25,172.11a7.45,7.45,0,0,1-4.46-1.53,7.78,7.78,0,0,1-3.17-5.48,7.39,7.39,0,0,1,2-5.72c1.8-1.94,3.68-3.81,5.51-5.63l2.2-2.19,1.25-1.27c1.45-1.46,2.9-2.92,4.37-4.36l-5.71-5.7-7-6.95a8.16,8.16,0,0,1-2.36-7.74,7.71,7.71,0,0,1,5.31-5.5,5.58,5.58,0,0,1,1.59-.22h.58a8,8,0,0,1,5.86,2.68l3.62,3.63c3,3,6,6,8.95,9q5.34-5.4,10.71-10.77l1.95-2a8.4,8.4,0,0,1,5.9-2.65,7.33,7.33,0,0,1,4,1.23,7.76,7.76,0,0,1,3.53,5.4,7.64,7.64,0,0,1-1.87,6.08c-1.15,1.34-2.39,2.56-3.6,3.74-.45.43-.89.87-1.33,1.31L238,138.57c-2.45,2.46-4.9,4.92-7.38,7.36,4,4,8.2,8.19,12.79,12.83,2.87,2.89,3.34,6.66,1.25,9.84a7.69,7.69,0,0,1-6.4,3.5,7.54,7.54,0,0,1-4.6-1.58,29,29,0,0,1-3.41-3.2c-.41-.43-.82-.86-1.24-1.27-3.34-3.3-6.38-6.34-9.25-9.25-3,3-5.92,5.94-8.87,8.88l-3.77,3.76A8.3,8.3,0,0,1,201.25,172.11Z"/><path class="cls-4" d="M355.37,172.11a7.45,7.45,0,0,1-4.46-1.53,7.78,7.78,0,0,1-3.17-5.47,7.4,7.4,0,0,1,2-5.73c1.8-1.94,3.68-3.81,5.51-5.63l2.2-2.19,1.26-1.27c1.44-1.46,2.89-2.92,4.36-4.36-1.92-1.91-3.82-3.8-5.71-5.7l-7-6.95a8.16,8.16,0,0,1-2.36-7.74,7.68,7.68,0,0,1,5.31-5.49,5.32,5.32,0,0,1,1.59-.23h.58a8,8,0,0,1,5.86,2.68l3.62,3.63c3,3,6,6,9,9q5.34-5.4,10.71-10.77l1.95-2a8.4,8.4,0,0,1,5.9-2.65,7.33,7.33,0,0,1,4,1.23,7.76,7.76,0,0,1,3.53,5.4,7.61,7.61,0,0,1-1.87,6.08c-1.15,1.34-2.39,2.56-3.6,3.74l-1.33,1.31-1.07,1.07c-2.45,2.46-4.9,4.92-7.38,7.36,4,4,8.2,8.19,12.79,12.83,2.87,2.9,3.35,6.66,1.25,9.84a7.69,7.69,0,0,1-6.4,3.5,7.54,7.54,0,0,1-4.6-1.58,29,29,0,0,1-3.41-3.2c-.41-.43-.82-.86-1.24-1.27-3.34-3.3-6.38-6.34-9.25-9.25-3,3-5.92,5.94-8.87,8.88l-3.77,3.77A8.33,8.33,0,0,1,355.37,172.11Z"/></g></g></svg>