<svg xmlns="http://www.w3.org/2000/svg" viewBox="0 0 399.14 181.72"><defs><style>.cls-1{fill:#f1f2f2;stroke:#231f20;stroke-miterlimit:10;stroke-width:1.42px;}.cls-2{font-size:79.37px;letter-spacing:0.18em;}.cls-2,.cls-3{font-family:hypy, hypy;}.cls-3{font-size:85.04px;letter-spacing:0.18em;}.cls-4{fill:#ce2811;}</style></defs><title>3d view selectedAsset 2</title><g id="Layer_2" data-name="Layer 2"><g id="Layer_1-2" data-name="Layer 1"><rect class="cls-1" x="0.71" y="10.93" width="255.12" height="170.08" rx="8.5" ry="8.5"/><text class="cls-2" transform="translate(119.24 72.51)">j</text><rect class="cls-1" x="143.31" y="10.93" width="255.12" height="170.08" rx="8.5" ry="8.5"/><text class="cls-3" transform="translate(147.36 76.57)">uang</text><path class="cls-4" d="M343.85,172.63a7.53,7.53,0,0,1-4.46-1.52,7.79,7.79,0,0,1-3.16-5.48,7.32,7.32,0,0,1,2-5.73c1.79-1.93,3.68-3.81,5.51-5.63.73-.72,1.47-1.45,2.2-2.19l1.25-1.26c1.45-1.46,2.9-2.93,4.36-4.37l-5.71-5.7q-3.48-3.48-7-6.95a8.15,8.15,0,0,1-2.35-7.74,7.66,7.66,0,0,1,5.31-5.49,5.67,5.67,0,0,1,1.59-.23H344a8,8,0,0,1,5.85,2.68l3.63,3.63c3,3,6,6,8.95,9,3.55-3.61,7.13-7.19,10.71-10.78l1.94-2a8.42,8.42,0,0,1,5.9-2.65,7.36,7.36,0,0,1,4,1.23,7.76,7.76,0,0,1,3.53,5.41,7.62,7.62,0,0,1-1.87,6.07c-1.15,1.34-2.4,2.56-3.61,3.74-.44.44-.89.87-1.32,1.31l-1.07,1.08c-2.46,2.46-4.91,4.92-7.38,7.36,4,4,8.19,8.19,12.78,12.82,2.87,2.9,3.35,6.67,1.25,9.84a7.57,7.57,0,0,1-11,1.93,29.8,29.8,0,0,1-3.4-3.2c-.41-.43-.83-.86-1.25-1.28-3.34-3.3-6.37-6.33-9.25-9.24-3,3-5.92,5.93-8.87,8.88L349.76,170A8.37,8.37,0,0,1,343.85,172.63Z"/><path class="cls-4" d="M15.85,172.63a7.53,7.53,0,0,1-4.46-1.52,7.79,7.79,0,0,1-3.16-5.48,7.32,7.32,0,0,1,2-5.73c1.79-1.93,3.68-3.81,5.51-5.63.73-.72,1.47-1.45,2.2-2.19l1.25-1.26c1.45-1.46,2.9-2.93,4.36-4.37l-5.71-5.7q-3.48-3.48-7-6.95a8.15,8.15,0,0,1-2.35-7.74,7.66,7.66,0,0,1,5.31-5.49,5.67,5.67,0,0,1,1.59-.23H16A8,8,0,0,1,21.82,123l3.63,3.63c3,3,6,6,9,9,3.55-3.61,7.13-7.19,10.71-10.78l1.94-2a8.42,8.42,0,0,1,5.9-2.65,7.36,7.36,0,0,1,4,1.23,7.76,7.76,0,0,1,3.53,5.41A7.62,7.62,0,0,1,58.64,133c-1.15,1.34-2.4,2.56-3.61,3.74-.44.44-.89.87-1.32,1.31l-1.07,1.08c-2.46,2.46-4.91,4.92-7.38,7.36,4,4,8.19,8.19,12.78,12.82,2.87,2.9,3.35,6.67,1.25,9.84a7.57,7.57,0,0,1-11,1.93,29.8,29.8,0,0,1-3.4-3.2c-.41-.43-.83-.86-1.25-1.28-3.34-3.3-6.37-6.33-9.25-9.24-3,3-5.92,5.93-8.87,8.88L21.76,170A8.37,8.37,0,0,1,15.85,172.63Z"/></g></g></svg>