<svg xmlns="http://www.w3.org/2000/svg" viewBox="0 0 258.78 173.27"><defs><style>.cls-1{fill:#8e8e8e;}.cls-2{fill:#f9f9f9;stroke:#8e8e8e;stroke-miterlimit:10;stroke-width:1px;}</style></defs><title>3d view selectedAsset 17</title><g id="Layer_2" data-name="Layer 2"><g id="Layer_1-2" data-name="Layer 1"><rect class="cls-1" x="0.5" y="0.5" width="255.12" height="170.08" rx="8.5" ry="8.5"/><rect class="cls-1" x="0.85" y="0.8" width="255.12" height="170.08" rx="8.5" ry="8.5"/><rect class="cls-1" x="1.2" y="1.1" width="255.12" height="170.08" rx="8.5" ry="8.5"/><rect class="cls-1" x="1.55" y="1.4" width="255.12" height="170.08" rx="8.5" ry="8.5"/><rect class="cls-1" x="1.91" y="1.7" width="255.12" height="170.08" rx="8.5" ry="8.5"/><rect class="cls-1" x="2.26" y="2" width="255.12" height="170.08" rx="8.5" ry="8.5"/><rect class="cls-1" x="2.61" y="2.3" width="255.12" height="170.08" rx="8.5" ry="8.5"/><rect class="cls-1" x="2.96" y="2.6" width="255.12" height="170.08" rx="8.5" ry="8.5"/><rect class="cls-1" x="3.31" y="2.9" width="255.12" height="170.08" rx="8.5" ry="8.5"/><rect class="cls-1" x="3.66" y="3.2" width="255.12" height="170.08" rx="8.5" ry="8.5"/><rect class="cls-2" x="0.5" y="0.5" width="255.12" height="170.08" rx="8.5" ry="8.5"/></g></g></svg>