<svg xmlns="http://www.w3.org/2000/svg" xmlns:xlink="http://www.w3.org/1999/xlink" viewBox="0 0 411.78 173.27"><defs><style>.cls-1{fill:#8e8e8e;}.cls-2,.cls-3{stroke:#8e8e8e;stroke-miterlimit:10;}.cls-2{fill:url(#linear-gradient);}.cls-3{fill:#f9f9f9;stroke-width:1px;}.cls-4{fill:#3caa3f;}</style><linearGradient id="linear-gradient" x1="0.5" y1="85.54" x2="255.62" y2="85.54" gradientUnits="userSpaceOnUse"><stop offset="0" stop-color="#fff"/><stop offset="0.32" stop-color="#fdfdfd"/><stop offset="0.46" stop-color="#f6f6f6"/><stop offset="0.56" stop-color="#e9e9e9"/><stop offset="0.64" stop-color="#d7d7d7"/><stop offset="0.72" stop-color="silver"/><stop offset="0.78" stop-color="#a4a4a4"/><stop offset="0.84" stop-color="#828282"/><stop offset="0.9" stop-color="#5a5a5a"/><stop offset="0.95" stop-color="#2f2f2f"/><stop offset="1"/></linearGradient></defs><title>3d view selectedAsset 15</title><g id="Layer_2" data-name="Layer 2"><g id="Layer_1-2" data-name="Layer 1"><rect class="cls-1" x="0.5" y="0.5" width="255.12" height="170.08" rx="8.5" ry="8.5"/><rect class="cls-1" x="0.85" y="0.8" width="255.12" height="170.08" rx="8.5" ry="8.5"/><rect class="cls-1" x="1.2" y="1.1" width="255.12" height="170.08" rx="8.5" ry="8.5"/><rect class="cls-1" x="1.55" y="1.4" width="255.12" height="170.08" rx="8.5" ry="8.5"/><rect class="cls-1" x="1.91" y="1.7" width="255.12" height="170.08" rx="8.5" ry="8.5"/><rect class="cls-1" x="2.26" y="2" width="255.12" height="170.08" rx="8.5" ry="8.5"/><rect class="cls-1" x="2.61" y="2.3" width="255.12" height="170.08" rx="8.5" ry="8.5"/><rect class="cls-1" x="2.96" y="2.6" width="255.12" height="170.08" rx="8.5" ry="8.5"/><rect class="cls-1" x="3.31" y="2.9" width="255.12" height="170.08" rx="8.5" ry="8.5"/><rect class="cls-1" x="3.66" y="3.2" width="255.12" height="170.08" rx="8.5" ry="8.5"/><rect class="cls-2" x="0.5" y="0.5" width="255.12" height="170.08" rx="8.5" ry="8.5"/><rect class="cls-1" x="153.5" y="0.5" width="255.12" height="170.08" rx="8.5" ry="8.5"/><rect class="cls-1" x="153.85" y="0.8" width="255.12" height="170.08" rx="8.5" ry="8.5"/><rect class="cls-1" x="154.2" y="1.1" width="255.12" height="170.08" rx="8.5" ry="8.5"/><rect class="cls-1" x="154.55" y="1.4" width="255.12" height="170.08" rx="8.5" ry="8.5"/><rect class="cls-1" x="154.91" y="1.7" width="255.12" height="170.08" rx="8.5" ry="8.5"/><rect class="cls-1" x="155.26" y="2" width="255.12" height="170.08" rx="8.5" ry="8.5"/><rect class="cls-1" x="155.61" y="2.3" width="255.12" height="170.08" rx="8.5" ry="8.5"/><rect class="cls-1" x="155.96" y="2.6" width="255.12" height="170.08" rx="8.5" ry="8.5"/><rect class="cls-1" x="156.31" y="2.9" width="255.12" height="170.08" rx="8.5" ry="8.5"/><rect class="cls-1" x="156.66" y="3.2" width="255.12" height="170.08" rx="8.5" ry="8.5"/><rect class="cls-3" x="153.5" y="0.5" width="255.12" height="170.08" rx="8.5" ry="8.5"/><path class="cls-4" d="M342.15,146.79a.93.93,0,0,1-.18-.73,6.5,6.5,0,0,1,1.45-4.63c1.19-1.3,3.24-1.92,6.59-1a3,3,0,0,1,.8.42c1.4,2,2.86,4,4.37,6l1.15,1.46.91,1.12.06.07h0l2.15-3.11,5-7.35c1.82-2.69,3.7-5.38,5.6-8.06l1.77-2.09c.54-.66,1.22-1.43,2-2.3s1.64-1.84,2.61-2.84a86.38,86.38,0,0,1,13.84-12.12c1-.7,2-1.32,2.81-1.87s1.69-1,2.41-1.37A19.86,19.86,0,0,1,399,106.9c1.78-.58,2.45-.37,2.32.33s-1,1.91-2.43,3.41c-.66.79-1.44,1.65-2.31,2.56s-1.75,2-2.71,3a20.35,20.35,0,0,1-2.42,2.86c-1.6,1.91-3.79,4.53-5.82,7.36s-4,5.75-5.48,8c-.72,1.13-1.32,2.07-1.75,2.73l-.65,1.06c-1.58,2.22-3.13,4.47-4.68,6.75l-5,7.37-2.91,4.21c-1.74,2.41-4,4.24-6.6,4.68a8,8,0,0,1-3.37-.15,8.26,8.26,0,0,1-3-1.6,12.77,12.77,0,0,1-1.32-1.33l-.63-.7-.56-.68-1.54-1.88-1.24-1.58Q344.43,150.12,342.15,146.79Z"/><path class="cls-4" d="M8.15,146.79a.93.93,0,0,1-.18-.73,6.5,6.5,0,0,1,1.45-4.63c1.19-1.3,3.24-1.92,6.59-1a3,3,0,0,1,.8.42c1.4,2,2.86,4,4.37,6l1.15,1.46.91,1.12.06.07h0l2.15-3.11,5-7.35c1.82-2.69,3.7-5.38,5.6-8.06l1.77-2.09c.54-.66,1.22-1.43,2-2.3s1.64-1.84,2.61-2.84A86.38,86.38,0,0,1,56.3,111.67c1-.7,2-1.32,2.81-1.87s1.69-1,2.41-1.37A19.86,19.86,0,0,1,65,106.9c1.78-.58,2.45-.37,2.32.33s-1,1.91-2.43,3.41c-.66.79-1.44,1.65-2.31,2.56s-1.75,2-2.71,3a20.35,20.35,0,0,1-2.42,2.86c-1.6,1.91-3.79,4.53-5.82,7.36s-4,5.75-5.48,8c-.72,1.13-1.32,2.07-1.75,2.73l-.65,1.06c-1.58,2.22-3.13,4.47-4.68,6.75l-5,7.37-2.91,4.21c-1.74,2.41-4,4.24-6.6,4.68a8,8,0,0,1-3.37-.15,8.26,8.26,0,0,1-3-1.6,12.77,12.77,0,0,1-1.32-1.33l-.63-.7-.56-.68-1.54-1.88L12.9,153.3Q10.43,150.12,8.15,146.79Z"/></g></g></svg>