<svg xmlns="http://www.w3.org/2000/svg" xmlns:xlink="http://www.w3.org/1999/xlink" viewBox="0 0 87.77 258.1"><defs><style>.cls-1{fill:none;}.cls-2{clip-path:url(#clip-path);}.cls-3{fill:#8e8e8e;}.cls-4{stroke:#8e8e8e;stroke-miterlimit:10;fill:url(#linear-gradient);}</style><clipPath id="clip-path" transform="translate(-12.66 -38.81)"><rect class="cls-1" width="112" height="124"/></clipPath><linearGradient id="linear-gradient" x1="55.68" y1="39.31" x2="55.68" y2="294.43" gradientTransform="translate(222.55 111.19) rotate(90)" gradientUnits="userSpaceOnUse"><stop offset="0" stop-color="#fff"/><stop offset="0.11" stop-color="#fbfbfb"/><stop offset="0.24" stop-color="#ededed"/><stop offset="0.37" stop-color="#d8d8d8"/><stop offset="0.5" stop-color="#b9b9b9"/><stop offset="0.63" stop-color="#929292"/><stop offset="0.77" stop-color="#626262"/><stop offset="0.91" stop-color="#2a2a2a"/><stop offset="1"/></linearGradient></defs><title>3d view selectedAsset 20</title><g id="Layer_2" data-name="Layer 2"><g id="Layer_1-2" data-name="Layer 1"><g class="cls-2"><rect class="cls-3" x="0.24" y="0.62" width="85.04" height="255.12" rx="8.5" ry="8.5"/><rect class="cls-3" x="0.52" y="0.88" width="85.04" height="255.12" rx="8.5" ry="8.5"/><rect class="cls-3" x="0.8" y="1.14" width="85.04" height="255.12" rx="8.5" ry="8.5"/><rect class="cls-3" x="1.07" y="1.41" width="85.04" height="255.12" rx="8.5" ry="8.5"/><rect class="cls-3" x="1.35" y="1.67" width="85.04" height="255.12" rx="8.5" ry="8.5"/><rect class="cls-3" x="1.62" y="1.93" width="85.04" height="255.12" rx="8.5" ry="8.5"/><rect class="cls-3" x="1.9" y="2.19" width="85.04" height="255.12" rx="8.5" ry="8.5"/><rect class="cls-3" x="2.18" y="2.46" width="85.04" height="255.12" rx="8.5" ry="8.5"/><rect class="cls-3" x="2.45" y="2.72" width="85.04" height="255.12" rx="8.5" ry="8.5"/><rect class="cls-3" x="2.73" y="2.98" width="85.04" height="255.12" rx="8.5" ry="8.5"/><rect class="cls-4" x="-71.88" y="124.35" width="255.12" height="85.04" rx="8.5" ry="8.5" transform="translate(-123.85 183.74) rotate(-90)"/><polygon points="60.76 61.09 32.44 80.07 29.28 74.3 58.1 54.45 60.76 61.09"/></g></g></g></svg>