<svg xmlns="http://www.w3.org/2000/svg" viewBox="0 0 112 296.91"><defs><style>.cls-1{fill:#8e8e8e;}.cls-2{fill:#fff;stroke:#8e8e8e;stroke-miterlimit:10;}.cls-3{fill:#f03d48;}.cls-4{fill:none;}</style></defs><title>3d view selectedAsset 24</title><g id="Layer_2" data-name="Layer 2"><g id="Layer_1-2" data-name="Layer 1"><rect class="cls-1" x="12.91" y="39.43" width="85.04" height="255.12" rx="8.5" ry="8.5"/><rect class="cls-1" x="13.18" y="39.69" width="85.04" height="255.12" rx="8.5" ry="8.5"/><rect class="cls-1" x="13.46" y="39.95" width="85.04" height="255.12" rx="8.5" ry="8.5"/><rect class="cls-1" x="13.74" y="40.22" width="85.04" height="255.12" rx="8.5" ry="8.5"/><rect class="cls-1" x="14.01" y="40.48" width="85.04" height="255.12" rx="8.5" ry="8.5"/><rect class="cls-1" x="14.29" y="40.74" width="85.04" height="255.12" rx="8.5" ry="8.5"/><rect class="cls-1" x="14.56" y="41" width="85.04" height="255.12" rx="8.5" ry="8.5"/><rect class="cls-1" x="14.84" y="41.27" width="85.04" height="255.12" rx="8.5" ry="8.5"/><rect class="cls-1" x="15.12" y="41.53" width="85.04" height="255.12" rx="8.5" ry="8.5"/><rect class="cls-1" x="15.39" y="41.79" width="85.04" height="255.12" rx="8.5" ry="8.5"/><rect class="cls-2" x="-71.88" y="124.35" width="255.12" height="85.04" rx="8.5" ry="8.5" transform="translate(-111.19 222.55) rotate(-90)"/><path class="cls-3" d="M60.9,21c0-.09,0-.13.32-.18a9.66,9.66,0,0,1,4-.19,9.86,9.86,0,0,1,5.5,2.73,1.47,1.47,0,0,1,.3.46c0,.08-.22.8-.57,2s-1,2.86-1.64,4.85A78,78,0,0,1,62,44.33a86.24,86.24,0,0,1-9.13,11.94c-1.35,1.52-2.53,2.7-3.33,3.56l-1.3,1.29s-1.41,1.05-3.41,2.29a53.35,53.35,0,0,1-6.86,3.68c-7.44,3.66-6.58-.21-3.76-4.41-.27.09,1.58-2.24,3.43-4.59.9-1.18,1.82-2.37,2.51-3.26l1.11-1.5s1.75-1.71,4.15-4.39a76.53,76.53,0,0,0,7.87-10.41A67.69,67.69,0,0,0,59,26.87c.57-1.71,1.12-3.11,1.4-4.17S60.88,21,60.9,21Z"/><path class="cls-3" d="M34.21,33.46c-.07-.08-.1-.11,0-.39a9.46,9.46,0,0,1,6.89-7,1.68,1.68,0,0,1,.55,0l5,5c2.92,2.88,6.79,6.61,10.78,10.05A116,116,0,0,0,68.75,49.8c1.62,1,3,1.92,3.92,2.46l1.52.87.87.72,2.23,1.75,6.12,4.73c3.44,2.38,4.41,3.79,3.69,4.66a3.41,3.41,0,0,1-2.14.8,14.15,14.15,0,0,1-3.7-.08c.23.2-3-.43-6.27-1.44-1.63-.49-3.23-1.11-4.46-1.53l-2-.82-1.69-1c-1-.65-2.57-1.57-4.32-2.75a124.3,124.3,0,0,1-12.17-9.41c-4.19-3.64-8.16-7.45-11.11-10.35Z"/><rect class="cls-4" width="112" height="124"/><polygon points="74.06 100 55.79 118.27 37.86 100 45.5 100 55.79 110.3 66.09 100 74.06 100"/></g></g></svg>