<svg xmlns="http://www.w3.org/2000/svg" xmlns:xlink="http://www.w3.org/1999/xlink" viewBox="0 0 87.77 279.72"><defs><style>.cls-1{fill:none;}.cls-2{clip-path:url(#clip-path);}.cls-3{fill:#8e8e8e;}.cls-4{stroke:#8e8e8e;stroke-miterlimit:10;fill:url(#linear-gradient);}.cls-5{fill:#3caa3f;}</style><clipPath id="clip-path" transform="translate(-12.66 -17.19)"><rect class="cls-1" width="112" height="124"/></clipPath><linearGradient id="linear-gradient" x1="55.68" y1="39.31" x2="55.68" y2="294.43" gradientTransform="translate(222.55 111.19) rotate(90)" gradientUnits="userSpaceOnUse"><stop offset="0" stop-color="#fff"/><stop offset="0.11" stop-color="#fbfbfb"/><stop offset="0.24" stop-color="#ededed"/><stop offset="0.37" stop-color="#d8d8d8"/><stop offset="0.5" stop-color="#b9b9b9"/><stop offset="0.63" stop-color="#929292"/><stop offset="0.77" stop-color="#626262"/><stop offset="0.91" stop-color="#2a2a2a"/><stop offset="1"/></linearGradient></defs><title>3d view selectedAsset 14</title><g id="Layer_2" data-name="Layer 2"><g id="Layer_1-2" data-name="Layer 1"><g class="cls-2"><rect class="cls-3" x="0.24" y="22.23" width="85.04" height="255.12" rx="8.5" ry="8.5"/><rect class="cls-3" x="0.52" y="22.5" width="85.04" height="255.12" rx="8.5" ry="8.5"/><rect class="cls-3" x="0.8" y="22.76" width="85.04" height="255.12" rx="8.5" ry="8.5"/><rect class="cls-3" x="1.07" y="23.02" width="85.04" height="255.12" rx="8.5" ry="8.5"/><rect class="cls-3" x="1.35" y="23.29" width="85.04" height="255.12" rx="8.5" ry="8.5"/><rect class="cls-3" x="1.62" y="23.55" width="85.04" height="255.12" rx="8.5" ry="8.5"/><rect class="cls-3" x="1.9" y="23.81" width="85.04" height="255.12" rx="8.5" ry="8.5"/><rect class="cls-3" x="2.18" y="24.07" width="85.04" height="255.12" rx="8.5" ry="8.5"/><rect class="cls-3" x="2.45" y="24.34" width="85.04" height="255.12" rx="8.5" ry="8.5"/><rect class="cls-3" x="2.73" y="24.6" width="85.04" height="255.12" rx="8.5" ry="8.5"/><rect class="cls-4" x="-71.88" y="124.35" width="255.12" height="85.04" rx="8.5" ry="8.5" transform="translate(-123.85 205.36) rotate(-90)"/><rect x="28.06" y="95.51" width="29.4" height="5.77"/><path class="cls-5" d="M36.55,57.42a.89.89,0,0,1-.19-.73,6.55,6.55,0,0,1,1.45-4.63c1.19-1.3,3.24-1.92,6.59-1a2.82,2.82,0,0,1,.8.42c1.4,2,2.86,4,4.38,6L50.72,59l.91,1.12.06.07h0l2.14-3.11,5-7.35c1.82-2.69,3.7-5.38,5.6-8.06l1.77-2.09c.55-.66,1.23-1.43,2-2.3s1.63-1.84,2.6-2.84A86.57,86.57,0,0,1,84.7,22.29c1-.69,2-1.31,2.8-1.86s1.69-1,2.41-1.37a19.14,19.14,0,0,1,3.52-1.53c1.78-.58,2.46-.37,2.32.33s-1,1.91-2.42,3.41c-.67.79-1.45,1.65-2.32,2.56s-1.75,2-2.7,3a22.34,22.34,0,0,1-2.43,2.86c-1.6,1.91-3.79,4.53-5.82,7.36s-4,5.75-5.48,8l-1.74,2.73-.66,1.06q-2.36,3.33-4.68,6.75L62.5,63l-2.91,4.21c-1.74,2.41-4,4.24-6.6,4.68a8,8,0,0,1-3.37-.15,8.29,8.29,0,0,1-3-1.6,11.85,11.85,0,0,1-1.32-1.33l-.64-.7-.56-.68-1.54-1.88-1.24-1.58Q38.82,60.75,36.55,57.42Z" transform="translate(-12.66 -17.19)"/></g></g></g></svg>