<svg xmlns="http://www.w3.org/2000/svg" viewBox="0 0 545.78 173.27"><defs><style>.cls-1{fill:#8e8e8e;}.cls-2{fill:#f9f9f9;stroke:#8e8e8e;stroke-miterlimit:10;stroke-width:1px;}.cls-3{fill:#f03d48;}</style></defs><title>3d view selectedAsset 16</title><g id="Layer_2" data-name="Layer 2"><g id="Layer_1-2" data-name="Layer 1"><rect class="cls-1" x="287.5" y="0.5" width="255.12" height="170.08" rx="8.5" ry="8.5"/><rect class="cls-1" x="287.85" y="0.8" width="255.12" height="170.08" rx="8.5" ry="8.5"/><rect class="cls-1" x="288.2" y="1.1" width="255.12" height="170.08" rx="8.5" ry="8.5"/><rect class="cls-1" x="288.55" y="1.4" width="255.12" height="170.08" rx="8.5" ry="8.5"/><rect class="cls-1" x="288.91" y="1.7" width="255.12" height="170.08" rx="8.5" ry="8.5"/><rect class="cls-1" x="289.26" y="2" width="255.12" height="170.08" rx="8.5" ry="8.5"/><rect class="cls-1" x="289.61" y="2.3" width="255.12" height="170.08" rx="8.5" ry="8.5"/><rect class="cls-1" x="289.96" y="2.6" width="255.12" height="170.08" rx="8.5" ry="8.5"/><rect class="cls-1" x="290.31" y="2.9" width="255.12" height="170.08" rx="8.5" ry="8.5"/><rect class="cls-1" x="290.66" y="3.2" width="255.12" height="170.08" rx="8.5" ry="8.5"/><rect class="cls-2" x="287.5" y="0.5" width="255.12" height="170.08" rx="8.5" ry="8.5"/><path class="cls-3" d="M506.21,114.35c0-.1,0-.13.32-.19A10.07,10.07,0,0,1,516,116.7a1.29,1.29,0,0,1,.31.47l-.58,2c-.32,1.21-1,2.86-1.64,4.85a78.59,78.59,0,0,1-6.82,13.69,86.23,86.23,0,0,1-9.14,11.94c-1.34,1.52-2.53,2.7-3.33,3.56l-1.29,1.29s-1.41,1-3.42,2.29a52.05,52.05,0,0,1-6.86,3.68c-7.44,3.66-6.57-.21-3.76-4.41-.26.09,1.59-2.24,3.43-4.59l2.51-3.26,1.11-1.5s1.75-1.71,4.15-4.39a75.91,75.91,0,0,0,7.88-10.41,67.58,67.58,0,0,0,5.76-11.66c.57-1.71,1.13-3.11,1.4-4.16S506.19,114.41,506.21,114.35Z"/><path class="cls-3" d="M479.52,126.83c-.08-.08-.11-.11,0-.39a9.44,9.44,0,0,1,6.89-7,1.49,1.49,0,0,1,.56,0c.1.11,2.09,2.08,5,5s6.79,6.61,10.79,10a114.75,114.75,0,0,0,11.32,8.73c1.62,1,3,1.92,3.93,2.46l1.51.87.87.72L522.6,149l6.11,4.73c3.44,2.38,4.41,3.79,3.7,4.66a3.38,3.38,0,0,1-2.14.8,14.22,14.22,0,0,1-3.71-.08c.23.2-3-.42-6.27-1.44-1.63-.49-3.23-1.11-4.46-1.53l-2-.81-1.7-1c-1-.66-2.56-1.58-4.31-2.76a122,122,0,0,1-12.17-9.41c-4.2-3.64-8.17-7.45-11.11-10.35Z"/><rect class="cls-1" x="0.5" y="0.5" width="255.12" height="170.08" rx="8.5" ry="8.5"/><rect class="cls-1" x="0.85" y="0.8" width="255.12" height="170.08" rx="8.5" ry="8.5"/><rect class="cls-1" x="1.2" y="1.1" width="255.12" height="170.08" rx="8.5" ry="8.5"/><rect class="cls-1" x="1.55" y="1.4" width="255.12" height="170.08" rx="8.5" ry="8.5"/><rect class="cls-1" x="1.91" y="1.7" width="255.12" height="170.08" rx="8.5" ry="8.5"/><rect class="cls-1" x="2.26" y="2" width="255.12" height="170.08" rx="8.5" ry="8.5"/><rect class="cls-1" x="2.61" y="2.3" width="255.12" height="170.08" rx="8.5" ry="8.5"/><rect class="cls-1" x="2.96" y="2.6" width="255.12" height="170.08" rx="8.5" ry="8.5"/><rect class="cls-1" x="3.31" y="2.9" width="255.12" height="170.08" rx="8.5" ry="8.5"/><rect class="cls-1" x="3.66" y="3.2" width="255.12" height="170.08" rx="8.5" ry="8.5"/><rect class="cls-2" x="0.5" y="0.5" width="255.12" height="170.08" rx="8.5" ry="8.5"/><path class="cls-3" d="M219.21,114.35c0-.1,0-.13.32-.19A10.07,10.07,0,0,1,229,116.7a1.29,1.29,0,0,1,.31.47l-.58,2c-.32,1.21-1,2.86-1.64,4.85a78.59,78.59,0,0,1-6.82,13.69,86.23,86.23,0,0,1-9.14,11.94c-1.34,1.52-2.53,2.7-3.33,3.56l-1.29,1.29s-1.41,1-3.42,2.29a52.05,52.05,0,0,1-6.86,3.68c-7.44,3.66-6.57-.21-3.76-4.41-.26.09,1.59-2.24,3.43-4.59l2.51-3.26,1.11-1.5s1.75-1.71,4.15-4.39a75.91,75.91,0,0,0,7.88-10.41,67.58,67.58,0,0,0,5.76-11.66c.57-1.71,1.13-3.11,1.4-4.16S219.19,114.41,219.21,114.35Z"/><path class="cls-3" d="M192.52,126.83c-.08-.08-.11-.11,0-.39a9.44,9.44,0,0,1,6.89-7,1.49,1.49,0,0,1,.56,0c.1.11,2.09,2.08,5,5s6.79,6.61,10.79,10a114.75,114.75,0,0,0,11.32,8.73c1.62,1,3,1.92,3.93,2.46l1.51.87.87.72L235.6,149l6.11,4.73c3.44,2.38,4.41,3.79,3.7,4.66a3.38,3.38,0,0,1-2.14.8,14.22,14.22,0,0,1-3.71-.08c.23.2-3-.42-6.27-1.44-1.63-.49-3.23-1.11-4.46-1.53l-2-.81-1.7-1c-1-.66-2.56-1.58-4.31-2.76a122,122,0,0,1-12.17-9.41c-4.2-3.64-8.17-7.45-11.11-10.35Z"/></g></g></svg>